<mxfile host="app.diagrams.net" modified="2021-03-30T19:50:47.297Z" agent="5.0 (Windows NT 10.0; Win64; x64) AppleWebKit/537.36 (KHTML, like Gecko) Chrome/89.0.4389.90 Safari/537.36" etag="1NqtuYh4aE9YEq1rwMAg" version="14.4.9" type="github" pages="2">
  <diagram name="Twitter" id="03018318-947c-dd8e-b7a3-06fadd420f32">
    <mxGraphModel dx="1038" dy="1398" grid="1" gridSize="10" guides="1" tooltips="1" connect="1" arrows="1" fold="1" page="1" pageScale="1" pageWidth="1100" pageHeight="850" background="#ffffff" math="0" shadow="0">
      <root>
        <mxCell id="0" />
        <mxCell id="1" parent="0" />
        <mxCell id="677b7b8949515195-1" value="" style="whiteSpace=wrap;html=1;rounded=0;shadow=0;labelBackgroundColor=none;strokeColor=#000000;strokeWidth=1;fillColor=none;fontFamily=Verdana;fontSize=12;fontColor=#000000;align=center;comic=1;" parent="1" vertex="1">
          <mxGeometry y="-10" width="1080" height="810" as="geometry" />
        </mxCell>
        <mxCell id="677b7b8949515195-2" value="LOGO" style="whiteSpace=wrap;html=1;rounded=0;shadow=0;labelBackgroundColor=none;strokeWidth=1;fontFamily=Verdana;fontSize=28;align=center;comic=1;" parent="1" vertex="1">
          <mxGeometry x="50" width="190" height="50" as="geometry" />
        </mxCell>
        <mxCell id="677b7b8949515195-3" value="Search" style="strokeWidth=1;shadow=0;dashed=0;align=center;html=1;shape=mxgraph.mockup.forms.searchBox;strokeColor=#999999;mainText=;strokeColor2=#008cff;fontColor=#666666;fontSize=17;align=left;spacingLeft=3;rounded=0;labelBackgroundColor=none;comic=1;" parent="1" vertex="1">
          <mxGeometry x="819" width="220" height="50" as="geometry" />
        </mxCell>
        <mxCell id="677b7b8949515195-8" value="&lt;b&gt;&lt;font style=&quot;font-size: 17px&quot;&gt;Side Nav bar/ Menu&lt;/font&gt;&lt;/b&gt;" style="whiteSpace=wrap;html=1;rounded=0;shadow=0;labelBackgroundColor=none;strokeWidth=1;fillColor=none;fontFamily=Helvetica;fontSize=12;align=center;comic=1;" parent="1" vertex="1">
          <mxGeometry x="40" y="80" width="190" height="650" as="geometry" />
        </mxCell>
        <mxCell id="677b7b8949515195-16" value="" style="verticalLabelPosition=bottom;shadow=0;dashed=0;align=center;html=1;verticalAlign=top;strokeWidth=1;shape=mxgraph.mockup.graphics.simpleIcon;strokeColor=#999999;rounded=0;labelBackgroundColor=none;fontFamily=Verdana;fontSize=14;fontColor=#000000;comic=1;" parent="1" vertex="1">
          <mxGeometry x="252" y="200" width="548" height="570" as="geometry" />
        </mxCell>
        <mxCell id="677b7b8949515195-25" value="What&#39;s happening aside bar." style="whiteSpace=wrap;html=1;rounded=0;shadow=0;labelBackgroundColor=none;strokeWidth=1;fillColor=none;fontFamily=Verdana;fontSize=12;align=center;comic=1;" parent="1" vertex="1">
          <mxGeometry x="819" y="80" width="221" height="340" as="geometry" />
        </mxCell>
        <mxCell id="677b7b8949515195-26" value="Who to follow aside bar." style="whiteSpace=wrap;html=1;rounded=0;shadow=0;labelBackgroundColor=none;strokeWidth=1;fillColor=none;fontFamily=Verdana;fontSize=12;align=center;comic=1;" parent="1" vertex="1">
          <mxGeometry x="819" y="440" width="221" height="290" as="geometry" />
        </mxCell>
        <mxCell id="BfkWd_Lkk3Fwh7lcmiUQ-1" value="What&#39;s happening?" style="rounded=0;whiteSpace=wrap;html=1;fontFamily=Helvetica;" parent="1" vertex="1">
          <mxGeometry x="250" y="48" width="550" height="140" as="geometry" />
        </mxCell>
        <mxCell id="BfkWd_Lkk3Fwh7lcmiUQ-2" value="Icons with button" style="rounded=0;whiteSpace=wrap;html=1;fontFamily=Helvetica;" parent="1" vertex="1">
          <mxGeometry x="270" y="150" width="500" height="30" as="geometry" />
        </mxCell>
        <mxCell id="BfkWd_Lkk3Fwh7lcmiUQ-3" value="Home heading" style="rounded=0;whiteSpace=wrap;html=1;fontFamily=Helvetica;" parent="1" vertex="1">
          <mxGeometry x="250" width="550" height="50" as="geometry" />
        </mxCell>
        <mxCell id="BfkWd_Lkk3Fwh7lcmiUQ-6" value="&lt;h1&gt;&lt;font style=&quot;font-size: 36px&quot;&gt;Twitter&lt;/font&gt;&lt;/h1&gt;" style="text;html=1;strokeColor=none;fillColor=none;spacing=5;spacingTop=-20;whiteSpace=wrap;overflow=hidden;rounded=0;fontFamily=Helvetica;" parent="1" vertex="1">
          <mxGeometry x="10" y="-90" width="190" height="120" as="geometry" />
        </mxCell>
      </root>
    </mxGraphModel>
  </diagram>
  <diagram id="-IJRvlKpihYplsWnD22d" name="disney_hotstar">
    <mxGraphModel dx="1038" dy="491" grid="1" gridSize="10" guides="1" tooltips="1" connect="1" arrows="1" fold="1" page="1" pageScale="1" pageWidth="827" pageHeight="1169" math="0" shadow="0">
      <root>
        <mxCell id="imJqKIsGH9w-xGum71Zf-0" />
        <mxCell id="imJqKIsGH9w-xGum71Zf-1" parent="imJqKIsGH9w-xGum71Zf-0" />
      </root>
    </mxGraphModel>
  </diagram>
</mxfile>
